Coordinates
version=1
nRows=4
nColumns=63
inDegrees=yes

Units are S.I. units (second, meters, Newtons, ...)
If the header above contains a line with 'inDegrees', this indicates whether rotational values are in degrees (yes) or radians (no).

endheader
time	pelvis_tilt	pelvis_list	pelvis_rotation	pelvis_tx	pelvis_ty	pelvis_tz	hip_flexion_r	hip_adduction_r	hip_rotation_r	knee_angle_r	knee_angle_r_beta	ankle_angle_r	subtalar_angle_r	mtp_angle_r	hip_flexion_l	hip_adduction_l	hip_rotation_l	knee_angle_l	knee_angle_l_beta	ankle_angle_l	subtalar_angle_l	mtp_angle_l	L5_S1_Flex_Ext	L5_S1_Lat_Bending	L5_S1_axial_rotation	L4_L5_Flex_Ext	L4_L5_Lat_Bending	L4_L5_axial_rotation	L3_L4_Flex_Ext	L3_L4_Lat_Bending	L3_L4_axial_rotation	L2_L3_Flex_Ext	L2_L3_Lat_Bending	L2_L3_axial_rotation	L1_L2_Flex_Ext	L1_L2_Lat_Bending	L1_L2_axial_rotation	L1_T12_Flex_Ext	L1_T12_Lat_Bending	L1_T12_axial_rotation	Abs_r3	Abs_r2	Abs_r1	Abs_t1	Abs_t2	neck_flexion	neck_bending	neck_rotation	arm_flex_r	arm_add_r	arm_rot_r	elbow_flex_r	pro_sup_r	wrist_flex_r	wrist_dev_r	arm_flex_l	arm_add_l	arm_rot_l	elbow_flex_l	pro_sup_l	wrist_flex_l	wrist_dev_l
      0.90000000	     -0.92403230	     -5.35393776	     85.78169655	      0.22972639	      0.79898656	      0.67388477	      2.88373530	     -0.96826486	    -10.44892711	     12.30614881	      0.21478281	     33.34714859	     16.29631669	      0.00000000	      1.43315104	     -1.58907011	      5.15823527	     10.40853597	      0.18166322	     26.95492292	     -2.72473809	      0.00000000	     -0.08878250	     -0.27362122	      0.65890907	     -0.16487798	     -0.36391622	      0.70009088	     -0.14586077	     -0.66528263	      0.70009088	     -0.10146952	     -0.66528263	      0.57654543	     -0.08244343	     -0.55796839	      0.53536362	     -0.05073032	     -0.42383927	      0.49418180	     -0.63416451	     -3.09525795	      3.66465455	      0.00000000	      0.00000000	      8.86821412	      4.35287620	    -14.49213575	    -13.41323219	     -9.20935488	     -5.88388859	    142.71193657	     87.10370339	    -12.77236774	     -2.03881922	      3.27719225	    -26.35907262	     50.34679179	     26.84435233	     87.44825010	     -3.45409323	     -0.92742531
      0.91666667	     -0.80026735	     -5.43112967	     86.13195549	      0.22891329	      0.79924523	      0.67432241	      2.92747653	     -0.84858332	    -10.54635700	     12.13835530	      0.21185427	     33.44564631	     16.36018117	      0.00000000	      1.55025599	     -1.81854057	      4.24573399	     10.38273061	      0.18121283	     27.44543886	     -0.98122534	      0.00000000	     -0.09128205	     -0.25493030	      0.62150001	     -0.16951989	     -0.33905729	      0.66034376	     -0.14996728	     -0.61983752	      0.66034376	     -0.10432625	     -0.61983752	      0.54381250	     -0.08476451	     -0.51985386	      0.50496875	     -0.05215856	     -0.39488703	      0.46612500	     -0.65201855	     -2.88382249	      3.45659658	      0.00000000	      0.00000000	      8.93976924	      4.38493501	    -14.26978215	    -11.07065142	     -9.43992568	     -6.52338344	    143.17994502	     87.48862833	    -12.45426147	     -4.01581951	      3.72415652	    -26.72569071	     56.25110371	     24.70129496	     87.51615113	     -4.90580978	     -3.43484337
      0.93333333	     -0.53196872	     -5.42799854	     86.36309512	      0.22757070	      0.79967431	      0.67490954	      2.90856839	     -0.63908457	    -10.65480310	     12.03935096	      0.21012631	     33.42756476	     16.48809515	      0.00000000	      1.52465900	     -2.09335040	      3.97995879	     10.30367020	      0.17983297	     27.64039144	     -0.28294135	      0.00000000	     -0.10385128	     -0.20930738	      0.66926503	     -0.19286221	     -0.27837882	      0.71109409	     -0.17061727	     -0.50890996	      0.71109409	     -0.11869163	     -0.50890996	      0.58560690	     -0.09643630	     -0.42681961	      0.54377783	     -0.05934062	     -0.32421713	      0.50194877	     -0.74179931	     -2.36772694	      3.72225130	      0.00000000	      0.00000000	      8.90821737	      4.15238783	    -14.16771583	     -9.18368431	     -9.83936878	     -7.49607846	    144.17774122	     87.83643991	    -12.04717047	     -4.92242681	      6.33508077	    -26.05704521	     71.48540011	     20.37943831	     86.75785395	     -7.55942617	     -7.04314229
      0.95000000	     -0.18912914	     -5.57951893	     86.56235341	      0.22555698	      0.80019261	      0.67500880	      2.97480071	     -0.38921960	    -10.84121618	     11.87969011	      0.20733971	     33.21504926	     16.61336601	      0.00000000	      1.52541352	     -2.26387237	      5.31699401	     10.03489971	      0.17514204	     27.16633027	     -1.95669971	      0.00000000	     -0.09463231	     -0.13798448	      0.60223781	     -0.17574167	     -0.18351936	      0.63987767	     -0.15547143	     -0.33549547	      0.63987767	     -0.10815527	     -0.33549547	      0.52695808	     -0.08787557	     -0.28137796	      0.48931822	     -0.05407290	     -0.21373796	      0.45167836	     -0.67594915	     -1.56090807	      3.34946601	      0.00000000	      0.00000000	      8.82068669	      3.66280017	    -13.19646199	     -7.05560072	    -10.42063922	     -7.78384110	    145.28106274	     88.12694112	    -11.41863794	     -4.50833585	      8.48073754	    -18.86440106	    171.09400263	      0.45726367	     23.79450712	     -7.44693794	    -16.40698830
